<?xml version="1.0" encoding="utf-8"?>
<!-- Generator: Adobe Illustrator 16.0.0, SVG Export Plug-In . SVG Version: 6.00 Build 0)  -->
<!DOCTYPE svg PUBLIC "-//W3C//DTD SVG 1.1//EN" "http://www.w3.org/Graphics/SVG/1.1/DTD/svg11.dtd">
<svg version="1.1" id="Layer_1" xmlns="http://www.w3.org/2000/svg" xmlns:xlink="http://www.w3.org/1999/xlink" x="0px" y="0px"
	 width="142px" height="239.418px" viewBox="0 0 142 239.418" enable-background="new 0 0 142 239.418" xml:space="preserve">
<line fill="none" stroke="#BCBDC1" stroke-width="3" stroke-miterlimit="10" x1="14.85" y1="177.353" x2="127.149" y2="177.353"/>
<g>
	<defs>
		<path id="SVGID_1_" d="M95.568,195.8l-5.88,17.533L83.86,195.8h-4.662l-4.354,25.138h4.665l2.762-15.877l5.293,15.877h4.217
			l5.341-15.877l2.695,15.877h4.628l-4.218-25.138H95.568z M113.024,200.465h1.35c1.481,0,2.496,0.166,3.042,0.497
			c0.752,0.446,1.128,1.155,1.128,2.127c0,0.56-0.135,1.037-0.401,1.431c-0.268,0.396-0.636,0.678-1.103,0.85
			c-0.467,0.171-1.299,0.257-2.495,0.257h-1.521V200.465z M108.239,195.8v25.138h4.785v-10.646c2.438,0,4.117-0.131,5.042-0.393
			c1.571-0.456,2.816-1.267,3.733-2.428c0.916-1.162,1.375-2.62,1.375-4.375c0-1.583-0.35-2.941-1.051-4.076
			c-0.7-1.134-1.657-1.952-2.871-2.461c-1.213-0.508-3.193-0.76-5.938-0.76H108.239z M25.395,196.944
			c-2.113,1.186-3.737,2.753-4.87,4.698c-1.134,1.95-1.701,4.178-1.701,6.685c0,3.873,1.245,7.049,3.735,9.526
			c2.489,2.479,5.688,3.718,9.596,3.718c2.119,0,4.004-0.352,5.657-1.052c1.651-0.7,3.406-1.959,5.263-3.771l-3.244-3.385
			c-1.378,1.369-2.641,2.313-3.791,2.831s-2.419,0.778-3.807,0.778c-1.628,0-3.108-0.371-4.44-1.112
			c-1.331-0.741-2.362-1.762-3.091-3.062c-0.728-1.3-1.092-2.79-1.092-4.465c0-2.406,0.822-4.431,2.467-6.073
			s3.669-2.464,6.07-2.464c2.846,0,5.407,1.204,7.684,3.61l3.347-3.19c-1.39-1.615-3.045-2.861-4.965-3.736
			c-1.92-0.878-3.917-1.314-5.99-1.314C29.785,195.167,27.508,195.76,25.395,196.944 M49.535,199.56
			c-2.2,2.46-3.298,5.354-3.298,8.682c0,2.426,0.595,4.688,1.786,6.784c1.19,2.097,2.808,3.713,4.854,4.845
			c2.044,1.134,4.371,1.701,6.98,1.701c2.438,0,4.563-0.52,6.375-1.556s3.287-2.54,4.426-4.512c1.14-1.971,1.709-4.055,1.709-6.255
			l-0.034-1.059H59.686v4.493h7.281c-0.696,1.481-1.611,2.57-2.747,3.266c-1.135,0.693-2.529,1.042-4.182,1.042
			c-2.543,0-4.682-0.843-6.416-2.529c-1.733-1.687-2.6-3.743-2.6-6.17c0-2.347,0.835-4.341,2.505-5.981
			c1.671-1.641,3.744-2.461,6.219-2.461c2.839,0,5.325,1.127,7.457,3.385l3.37-3.332c-1.538-1.664-3.111-2.84-4.717-3.522
			c-1.903-0.809-3.948-1.213-6.136-1.213C55.539,195.167,52.144,196.631,49.535,199.56"/>
	</defs>
	<clipPath id="SVGID_2_">
		<use xlink:href="#SVGID_1_"  overflow="visible"/>
	</clipPath>
	
		<linearGradient id="SVGID_3_" gradientUnits="userSpaceOnUse" x1="4.882813e-004" y1="239.418" x2="1.0005" y2="239.418" gradientTransform="matrix(0 -26.4043 -26.4043 0 6392.6631 221.5742)">
		<stop  offset="0" style="stop-color:#662D91"/>
		<stop  offset="0.7542" style="stop-color:#1C75BC"/>
		<stop  offset="0.9813" style="stop-color:#1C75BC"/>
		<stop  offset="1" style="stop-color:#1C75BC"/>
	</linearGradient>
	<rect x="18.824" y="195.167" clip-path="url(#SVGID_2_)" fill="url(#SVGID_3_)" width="104.351" height="26.404"/>
</g>
<g>
	<defs>
		<path id="SVGID_4_" d="M92.947,108.573c-3.618,0.936-10.312,23.271-10.312,23.271c-0.092,0.918-10.358,3.414-10.358,3.414
			c-6.633,1.371-7.719-2.633-7.719-2.633l11.65-5.138c6.632-3.231,2.247-7.566,2.247-7.566c-0.538-0.237-25.925,8.72-25.925,8.72
			c-0.21,0.095-0.434,0.227-0.666,0.389c-4.191,2.96-11.066,16.49-11.066,16.49l18.444,11.209l3.826-9.223
			c0.719-1.597,20.356-6.865,20.356-6.865c4.61-1.576,5.032-3.943,5.032-3.943l10.021-27.755c-0.145-1.215-0.899-1.604-1.809-1.604
			C95.051,107.338,92.947,108.573,92.947,108.573"/>
	</defs>
	<clipPath id="SVGID_5_">
		<use xlink:href="#SVGID_4_"  overflow="visible"/>
	</clipPath>
	
		<radialGradient id="SVGID_6_" cx="0" cy="239.418" r="1" gradientTransform="matrix(-21.3946 15.1108 -15.1108 -21.3946 3690.6196 5253.7515)" gradientUnits="userSpaceOnUse">
		<stop  offset="0" style="stop-color:#39B54A"/>
		<stop  offset="0.0026" style="stop-color:#3DB54A"/>
		<stop  offset="0.022" style="stop-color:#51B848"/>
		<stop  offset="0.0862" style="stop-color:#4CB347"/>
		<stop  offset="0.6584" style="stop-color:#1B9B45"/>
		<stop  offset="1" style="stop-color:#009344"/>
	</radialGradient>
	<polygon clip-path="url(#SVGID_5_)" fill="url(#SVGID_6_)" points="79.281,80.158 17.524,123.776 59.995,183.909 121.752,140.291 	
		"/>
</g>
<g>
	<defs>
		<path id="SVGID_7_" d="M70.646,53.456c25.734,0.203,46.543,22.258,46.543,49.44c0,27.31-20.998,49.45-46.896,49.45
			c-25.908,0-46.9-22.14-46.9-49.45c0-20.385,11.695-37.877,28.396-45.446c-18.333,7.969-31.239,26.985-31.239,49.192
			c0,29.382,22.589,53.196,50.451,53.196c27.861,0,50.447-23.813,50.447-53.196c0-29.379-22.586-53.195-50.447-53.195
			C70.88,53.447,70.765,53.456,70.646,53.456"/>
	</defs>
	<clipPath id="SVGID_8_">
		<use xlink:href="#SVGID_7_"  overflow="visible"/>
	</clipPath>
	
		<radialGradient id="SVGID_9_" cx="0" cy="239.418" r="0.9996" gradientTransform="matrix(51.8406 0 0 -51.8406 71 12518.2021)" gradientUnits="userSpaceOnUse">
		<stop  offset="0" style="stop-color:#1C75BC"/>
		<stop  offset="0.2074" style="stop-color:#2174BB"/>
		<stop  offset="0.3817" style="stop-color:#2E6FB7"/>
		<stop  offset="0.5442" style="stop-color:#3C67B1"/>
		<stop  offset="0.6994" style="stop-color:#4B5BA9"/>
		<stop  offset="0.8495" style="stop-color:#59499E"/>
		<stop  offset="0.994" style="stop-color:#652E91"/>
		<stop  offset="1" style="stop-color:#662D91"/>
	</radialGradient>
	<rect x="20.551" y="53.447" clip-path="url(#SVGID_8_)" fill="url(#SVGID_9_)" width="100.898" height="106.391"/>
</g>
<g>
	<defs>
		<path id="SVGID_10_" d="M70.646,53.456c25.734,0.203,46.543,22.258,46.543,49.44c0,27.31-20.998,49.45-46.896,49.45
			c-25.908,0-46.9-22.14-46.9-49.45c0-20.385,11.695-37.877,28.396-45.446c-18.333,7.969-31.239,26.985-31.239,49.192
			c0,29.382,22.589,53.196,50.451,53.196c27.861,0,50.447-23.813,50.447-53.196c0-29.379-22.586-53.195-50.447-53.195
			C70.88,53.447,70.765,53.456,70.646,53.456"/>
	</defs>
	<clipPath id="SVGID_11_">
		<use xlink:href="#SVGID_10_"  overflow="visible"/>
	</clipPath>
	
		<linearGradient id="SVGID_12_" gradientUnits="userSpaceOnUse" x1="4.882813e-004" y1="239.4189" x2="1.0005" y2="239.4189" gradientTransform="matrix(100.8974 0 0 -100.8974 20.5625 24263.3184)">
		<stop  offset="0" style="stop-color:#1C75BC"/>
		<stop  offset="0.2074" style="stop-color:#2174BB"/>
		<stop  offset="0.3817" style="stop-color:#2E6FB7"/>
		<stop  offset="0.5442" style="stop-color:#3C67B1"/>
		<stop  offset="0.6994" style="stop-color:#4B5BA9"/>
		<stop  offset="0.8495" style="stop-color:#59499E"/>
		<stop  offset="0.994" style="stop-color:#652E91"/>
		<stop  offset="1" style="stop-color:#662D91"/>
	</linearGradient>
	<rect x="20.551" y="53.447" clip-path="url(#SVGID_11_)" fill="url(#SVGID_12_)" width="100.898" height="106.391"/>
</g>
<g>
	<defs>
		<rect id="SVGID_13_" width="142" height="239.418"/>
	</defs>
	<clipPath id="SVGID_14_">
		<use xlink:href="#SVGID_13_"  overflow="visible"/>
	</clipPath>
	<polygon clip-path="url(#SVGID_14_)" fill="#FFFFFF" points="34.041,67.853 34.041,73.804 77.825,56.868 79.508,51.985 
		49.296,46.95 	"/>
	<path clip-path="url(#SVGID_14_)" fill="#662D91" d="M112.786,58.196v-0.008c-0.513-0.414-1.103-0.356-1.636-0.651
		c-0.33-0.182-0.568-0.271-0.718-0.321c-0.046,0.069-0.119,0.135-0.204,0.193c-0.328,0.23-0.837,0.384-1.13,0.685
		c-0.2,0.21-0.447,0.731-0.562,1.025c-0.157,0.431,0.114,1.101-0.335,1.26c-0.531,0.194-1.264,0.116-1.851,0.116
		c-0.305,0-0.624,0.011-0.926,0c-0.379-0.024-0.463-0.186-0.762-0.345c-0.299-0.167-0.656-0.187-0.939-0.4
		c-0.238-0.166-0.377-0.387-0.528-0.593c-0.406-0.473-0.588-0.934-1.108-1.294c-0.576-0.373-0.629-0.857-0.313-1.412
		c0.256-0.441,0.43-0.898,0.676-1.375c0.218-0.445,0.437-0.922,0.635-1.338c0.12-0.231,0.216-0.472,0.223-0.729
		c0.013-0.251-0.223-0.546-0.103-0.735c0.096-0.04,0.28-0.067,0.355-0.136c0.311-0.237,0.592-0.884,0.993-0.962
		c0.255-0.03,0.592,0.174,0.722,0.326c0.115,0.135,0.13,0.213,0.258,0.314c0.099,0.085,0.218,0.123,0.33,0.194
		c0.271,0.159,0.522,0.345,0.795,0.504c0.116,0.058,0.304,0.127,0.383,0.204c0.094,0.098,0.094,0.244,0.194,0.308
		c0.337,0.244,0.754,0.123,1.136-0.037c-0.195-4.143,1.571-7.32,0.376-11.294c-0.758-2.458-0.63-7.167-1.874-9.772
		c-0.832,0.531-0.827,0.209-1.547-0.136c-0.798-0.392-1.592-0.372-2.508-0.372c-0.673,0-1.752,0.332-2.296,0.193
		c-0.328-0.065-0.437-0.441-0.734-0.569c-0.343-0.121-0.871,0.031-1.175-0.116c-0.077-0.043-0.304-0.012-0.388-0.012
		c0.274-1.345-1.979-0.854-2.722-0.767c-0.584,0.051-0.911,0.004-1.109-0.135c-0.482,0.6-1.129,0.851-2.239,0.779
		c-0.205,0.79-0.081,2.069-1.193,2.087c-0.265,1.436-1.847,0.617-2.853,0.905c-0.855,0.244-2.004,1.039-2.772,1.561
		c-1.607,1.101-3.452,2.043-4.476,3.78c-0.547,0.918-0.573,1.934-1.048,2.927c-0.505,1.057-1.427,1.174-2.301,1.89
		c-0.844,0.68-1.49,1.443-2.334,1.998c-1.216,0.82-1.317,0.864-1.806,2.352c-0.165,0.493-0.057,0.62-0.628,0.768
		c0.289,1.531-0.02,3.438-1.935,3.512c-0.414-0.752-1.35-0.303-2.105-0.291c-0.427-1.748-5.368,1.287-5.017-1.294
		c-0.188-0.168-0.162-0.04-0.298-0.295c-0.409-0.031-1.111,0.109-1.486-0.031c-0.537-0.198-0.632-0.632-1.052-0.744
		c-0.969-0.275-2.299,0.128-2.964,0.596c-1.374,0.955-2.358,2.562-3.652,3.679c-1.376,1.182-2.513,2.24-4.245,2.964
		c-1.522,0.641-4.313,1.094-5.96,0.904c0.039-0.609-0.273-1.325-0.18-1.914c0.096-0.586,0.602-0.83,0.607-1.48
		c0.02-1.063-0.85-2.788-1.175-3.742c-0.452-1.305-1.608-3.062-3.034-4.066c-0.342,4.058-0.154,8.292-0.154,12.412
		c0,2.407,0.114,5.009-0.148,7.424c-0.17,1.572-0.617,1.941-2.259,1.779c-0.519-0.044-1.151-0.427-1.653-0.299
		c-0.45,0.112-0.861,0.671-1.333,0.915c-0.03,0.136-0.004,0.255-0.043,0.39c-0.397,0.058-0.606,0.335-1.009,0.355
		c0.117,0.914-0.128,1.789-1.043,1.88c-0.223-1.331-0.846-0.897-1.729-0.904c-0.427-0.004-1.838-0.004-2.325,0.309
		c-0.097-0.045-0.233-0.217-0.335-0.289c-1.045,1.026-1.071-0.403-1.697-0.68c-1.057-0.472-1.314,0.168-1.951-1.196
		c-0.59-1.249-0.645-3.439-2.802-3.272c-0.115,0.542-1.54,2.678-2.083,2.991c-0.388,0.21-0.716,0.281-1,0.237
		c0.093,1.876,1.651,2.862,2.312,4.61c0.364,0.988,1.046,1.775,1.363,2.818c0.335,1.128,0.281,2.134,0.707,3.266
		c0.732,1.931,0.911,4.105,2.03,5.893c1.002,1.6,1.697,3.364,2.483,5.24c0.432,1.071,1.121,2.555,0.339,3.723
		c-0.891,1.294-2.426-0.148-2.418,2.069c0.02,2.47,4.724,4.055,2.094,6.671c0.709,0.737-0.162,0.813-0.132,1.473
		c0.012,0.794,0.311,1.206,0.487,1.931c0.786-1.027,0.746-1.857,2.492-1.904c0.055,0.569-0.039,1.061-0.11,1.596
		c1.159-0.271,1.559,0.21,2.523,0.485c-0.18,1.598,0.289,1.097,1.387,1.462c0.674,0.228,1.504,0.984,2.238,1.043
		c1.714,0.174,2.714-1.869,4.064-2.377c1.763-0.671,3.362-0.023,5.271-0.147c1.442-0.09,3.764-0.531,4.24-2.051
		c0.861-0.177,1.94-0.421,2.833-0.325c1.244,0.148,1.037,0.961,2.098,1.043c0.645,0.047,1.678-0.838,2.301-1.013
		c0.837-0.22,1.883-0.275,2.814-0.177c1.872,0.194,3.164,2.128,4.366,1.338c0.248-0.165,0.231-0.738,0.78-1.005
		c0.437-0.204,0.83-0.204,1.323-0.156c1.036,0.128,1.593,0.758,2.686,0.695c-0.044-0.973-0.965-2.051,0.204-2.776
		c0.718-0.446,2.849,0.02,3.735-0.03c1.853-0.098,4.411-1.059,5.97-1.965c1.654-0.954,3.264-2.346,4.824-3.552
		c1.559-1.217,3.426-2.45,4.807-3.852c1.582-1.602,3.131-3.024,4.817-4.458c1.229-1.059,0.781-1.159,1.345-2.524
		c0.376-0.9,1.526-1.686,2.267-2.225c0.753-2.1,2.373-3.919,3.214-6.028c2.064,0.168,1.195-0.756,1.766-1.956
		c0.311-0.676,1.545-1.815,2.085-2.269c1.55-1.341,3.912-1.365,4.861-3.357c0.927-1.954,1.649-3.573,2.389-5.515
		C112.228,62.781,113.123,60.18,112.786,58.196 M92.251,74.81c-0.176,0.322-0.381,0.84-0.667,1.07
		c-0.277,0.231-0.681,0.295-0.946,0.55c-0.758,0.775,0.539,1.449,0.046,2.218c-0.227,0.345-0.691,0.301-1.041,0.314
		c-0.512,0.007-0.94,0.12-1.443,0.139c-0.587,0.035-1.686,0.255-2.069,0.698c0,0-0.563,0.116-0.348,0.841
		c0.11,0.423-0.229,0.345-0.391,0.558c-0.188,0.21-0.23,0.532-0.357,0.736c-0.346,0.593-0.688,0.788-1.316,0.426
		c-0.468-0.278-1.101-0.413-1.488-0.786c-0.363-0.356-0.538-0.895-1.065-1.148c-0.07-0.345,0.195-0.461,0.195-0.728
		c0-0.147-0.2-0.582-0.279-0.705c-0.237-0.353-0.632-0.485-0.912-0.837c-0.249-0.315-0.262-0.734-0.471-1.013
		c-0.214-0.291-0.629-0.569-0.727-0.921c-0.163-0.59,0.919-0.962,1.345-1.253c0.258-0.166,0.61-0.389,0.8-0.624
		c0.297-0.349,0.15-0.656,0.343-1.019c0.075-0.125,0.24-0.213,0.317-0.346c0.097-0.166,0.059-0.341,0.143-0.5
		c0.146-0.302,0.521-0.423,0.709-0.678c0.907-0.221,1.797-0.372,2.643-0.722c0.837-0.309,1.02-1.368,2.1-1.266
		c0.195,0.372,0.712,0.162,1.048,0.294c0.396,0.147,0.459,0.282,0.973,0.282c0.732,0,1.342,0.109,1.78,0.711
		c0.377,0.507,0.781,1.057,0.911,1.639C92.24,73.445,92.632,74.17,92.251,74.81"/>
</g>
</svg>
