<?xml version="1.0" encoding="utf-8"?>
<!-- Generator: Adobe Illustrator 16.0.0, SVG Export Plug-In . SVG Version: 6.00 Build 0)  -->
<!DOCTYPE svg PUBLIC "-//W3C//DTD SVG 1.1//EN" "http://www.w3.org/Graphics/SVG/1.1/DTD/svg11.dtd">
<svg version="1.1" id="Layer_1" xmlns="http://www.w3.org/2000/svg" xmlns:xlink="http://www.w3.org/1999/xlink" x="0px" y="0px"
	 width="142px" height="239.418px" viewBox="0 0 142 239.418" enable-background="new 0 0 142 239.418" xml:space="preserve">
<line fill="none" stroke="#BCBDC1" stroke-width="3" stroke-miterlimit="10" x1="14.85" y1="177.353" x2="127.149" y2="177.353"/>
<g>
	<defs>
		<path id="SVGID_1_" d="M92.947,108.573c-3.618,0.936-10.312,23.271-10.312,23.271c-0.092,0.918-10.358,3.414-10.358,3.414
			c-6.633,1.371-7.719-2.633-7.719-2.633l11.65-5.138c6.632-3.231,2.247-7.566,2.247-7.566c-0.538-0.237-25.925,8.72-25.925,8.72
			c-0.21,0.095-0.434,0.227-0.666,0.389c-4.191,2.96-11.066,16.49-11.066,16.49l18.444,11.209l3.826-9.223
			c0.719-1.597,20.356-6.865,20.356-6.865c4.61-1.576,5.032-3.943,5.032-3.943l10.021-27.755c-0.145-1.215-0.899-1.604-1.809-1.604
			C95.051,107.338,92.947,108.573,92.947,108.573"/>
	</defs>
	<clipPath id="SVGID_2_">
		<use xlink:href="#SVGID_1_"  overflow="visible"/>
	</clipPath>
	
		<radialGradient id="SVGID_3_" cx="0" cy="239.418" r="1" gradientTransform="matrix(-21.3946 15.1108 -15.1108 -21.3946 3690.6196 5253.7515)" gradientUnits="userSpaceOnUse">
		<stop  offset="0" style="stop-color:#39B54A"/>
		<stop  offset="0.0026" style="stop-color:#3DB54A"/>
		<stop  offset="0.022" style="stop-color:#51B848"/>
		<stop  offset="0.0862" style="stop-color:#4CB347"/>
		<stop  offset="0.6584" style="stop-color:#1B9B45"/>
		<stop  offset="1" style="stop-color:#009344"/>
	</radialGradient>
	<polygon clip-path="url(#SVGID_2_)" fill="url(#SVGID_3_)" points="79.281,80.158 17.524,123.776 59.995,183.909 121.752,140.291 	
		"/>
</g>
<g>
	<defs>
		<path id="SVGID_4_" d="M70.646,53.456c25.734,0.203,46.543,22.258,46.543,49.44c0,27.31-20.998,49.45-46.896,49.45
			c-25.908,0-46.9-22.14-46.9-49.45c0-20.385,11.695-37.877,28.396-45.446c-18.333,7.969-31.239,26.985-31.239,49.192
			c0,29.382,22.589,53.196,50.451,53.196c27.861,0,50.447-23.813,50.447-53.196c0-29.379-22.586-53.195-50.447-53.195
			C70.88,53.447,70.765,53.456,70.646,53.456"/>
	</defs>
	<clipPath id="SVGID_5_">
		<use xlink:href="#SVGID_4_"  overflow="visible"/>
	</clipPath>
	
		<radialGradient id="SVGID_6_" cx="0" cy="239.418" r="0.9996" gradientTransform="matrix(51.8406 0 0 -51.8406 71 12518.2021)" gradientUnits="userSpaceOnUse">
		<stop  offset="0" style="stop-color:#1C75BC"/>
		<stop  offset="0.2074" style="stop-color:#2174BB"/>
		<stop  offset="0.3817" style="stop-color:#2E6FB7"/>
		<stop  offset="0.5442" style="stop-color:#3C67B1"/>
		<stop  offset="0.6994" style="stop-color:#4B5BA9"/>
		<stop  offset="0.8495" style="stop-color:#59499E"/>
		<stop  offset="0.994" style="stop-color:#652E91"/>
		<stop  offset="1" style="stop-color:#662D91"/>
	</radialGradient>
	<rect x="20.551" y="53.447" clip-path="url(#SVGID_5_)" fill="url(#SVGID_6_)" width="100.898" height="106.391"/>
</g>
<g>
	<defs>
		<path id="SVGID_7_" d="M70.646,53.456c25.734,0.203,46.543,22.258,46.543,49.44c0,27.31-20.998,49.45-46.896,49.45
			c-25.908,0-46.9-22.14-46.9-49.45c0-20.385,11.695-37.877,28.396-45.446c-18.333,7.969-31.239,26.985-31.239,49.192
			c0,29.382,22.589,53.196,50.451,53.196c27.861,0,50.447-23.813,50.447-53.196c0-29.379-22.586-53.195-50.447-53.195
			C70.88,53.447,70.765,53.456,70.646,53.456"/>
	</defs>
	<clipPath id="SVGID_8_">
		<use xlink:href="#SVGID_7_"  overflow="visible"/>
	</clipPath>
	
		<linearGradient id="SVGID_9_" gradientUnits="userSpaceOnUse" x1="4.882813e-004" y1="239.4189" x2="1.0005" y2="239.4189" gradientTransform="matrix(100.8974 0 0 -100.8974 20.5625 24263.3184)">
		<stop  offset="0" style="stop-color:#1C75BC"/>
		<stop  offset="0.2074" style="stop-color:#2174BB"/>
		<stop  offset="0.3817" style="stop-color:#2E6FB7"/>
		<stop  offset="0.5442" style="stop-color:#3C67B1"/>
		<stop  offset="0.6994" style="stop-color:#4B5BA9"/>
		<stop  offset="0.8495" style="stop-color:#59499E"/>
		<stop  offset="0.994" style="stop-color:#652E91"/>
		<stop  offset="1" style="stop-color:#662D91"/>
	</linearGradient>
	<rect x="20.551" y="53.447" clip-path="url(#SVGID_8_)" fill="url(#SVGID_9_)" width="100.898" height="106.391"/>
</g>
<g>
	<defs>
		<rect id="SVGID_10_" width="142" height="239.418"/>
	</defs>
	<clipPath id="SVGID_11_">
		<use xlink:href="#SVGID_10_"  overflow="visible"/>
	</clipPath>
	<polygon clip-path="url(#SVGID_11_)" fill="#FFFFFF" points="34.041,67.853 34.041,73.804 77.825,56.868 79.508,51.985 
		49.296,46.95 	"/>
	<path clip-path="url(#SVGID_11_)" fill-rule="evenodd" clip-rule="evenodd" fill="#662D91" d="M63.728,21.383l24.408,9.902
		l24.404,9.904l7.374,2.993l-7.374,2.991l-6.146,2.494v28.051c1.252,0.658,2.104,1.97,2.104,3.481c0,2.171-1.759,3.93-3.931,3.93
		c-2.171,0-3.93-1.759-3.93-3.93c0-1.511,0.853-2.823,2.104-3.481V44.181l-17.03-6.912l-23.196-9.411l-15.82,6.419l15.558,6.313
		l10.863,4.408l-0.389,0.157l-4.283,1.738l-3.914,1.588l-6.026-2.445l-4.282-1.738L41.16,39l-3.051-1.238l-15.819,6.42l17.031,6.91
		l23.195,9.41l23.196-9.41l2.881-1.169l5.766,2.34V76.33l-10.749,4.362l-19.882,8.065l-1.212,0.493l-1.212-0.493l-19.881-8.065
		L30.673,76.33V60.288l6.223,2.525l0.242,0.098v9.075l6.708,2.722l18.669,7.575l18.671-7.575l6.706-2.722V57.173l-24.165,9.803
		l-1.212,0.493l-1.212-0.493l-24.407-9.901l-24.405-9.902l-7.373-2.991l7.373-2.993l24.405-9.904l24.407-9.902l1.212-0.492
		L63.728,21.383z"/>
</g>
<g>
	<defs>
		<path id="SVGID_12_" d="M73.523,195.531l-5.881,17.533l-5.828-17.533h-4.662l-4.353,25.138h4.666l2.76-15.877l5.293,15.877h4.218
			l5.339-15.877l2.697,15.877h4.627l-4.219-25.138H73.523z M83.732,195.531v4.716h4.461v20.422h4.853v-20.422h4.58v-4.716H83.732z
			 M105.675,200.196h1.351c1.481,0,2.494,0.166,3.042,0.497c0.753,0.445,1.128,1.154,1.128,2.127c0,0.559-0.135,1.037-0.401,1.431
			c-0.268,0.396-0.636,0.677-1.103,0.849c-0.468,0.171-1.3,0.258-2.495,0.258h-1.521V200.196z M100.89,195.531v25.138h4.785v-10.646
			c2.438,0,4.119-0.131,5.042-0.394c1.572-0.456,2.817-1.266,3.734-2.427c0.916-1.162,1.375-2.62,1.375-4.375
			c0-1.584-0.351-2.943-1.051-4.077c-0.7-1.133-1.657-1.953-2.871-2.46c-1.213-0.507-3.193-0.76-5.938-0.76H100.89z M32.744,196.675
			c-2.113,1.187-3.737,2.752-4.87,4.7c-1.134,1.949-1.701,4.176-1.701,6.682c0,3.874,1.245,7.051,3.734,9.528
			c2.489,2.478,5.688,3.717,9.597,3.717c2.118,0,4.004-0.351,5.656-1.051c1.652-0.701,3.407-1.959,5.263-3.771l-3.243-3.384
			c-1.378,1.368-2.642,2.313-3.791,2.83c-1.149,0.52-2.419,0.779-3.808,0.779c-1.627,0-3.108-0.371-4.44-1.113
			c-1.331-0.74-2.361-1.761-3.089-3.061c-0.729-1.3-1.094-2.79-1.094-4.465c0-2.406,0.823-4.432,2.468-6.074
			s3.668-2.463,6.071-2.463c2.844,0,5.406,1.204,7.683,3.609l3.346-3.189c-1.39-1.615-3.045-2.862-4.964-3.737
			c-1.92-0.877-3.917-1.313-5.99-1.313C37.133,194.898,34.857,195.491,32.744,196.675"/>
	</defs>
	<clipPath id="SVGID_13_">
		<use xlink:href="#SVGID_12_"  overflow="visible"/>
	</clipPath>
	
		<linearGradient id="SVGID_14_" gradientUnits="userSpaceOnUse" x1="0" y1="239.418" x2="1" y2="239.418" gradientTransform="matrix(89.6533 0 0 -89.6533 26.1875 21672.7207)">
		<stop  offset="0" style="stop-color:#662D91"/>
		<stop  offset="0.7542" style="stop-color:#1C75BC"/>
		<stop  offset="0.9813" style="stop-color:#1C75BC"/>
		<stop  offset="1" style="stop-color:#1C75BC"/>
	</linearGradient>
	<rect x="26.173" y="194.898" clip-path="url(#SVGID_13_)" fill="url(#SVGID_14_)" width="89.653" height="26.403"/>
</g>
</svg>
