<?xml version="1.0" encoding="utf-8"?>
<!-- Generator: Adobe Illustrator 16.0.0, SVG Export Plug-In . SVG Version: 6.00 Build 0)  -->
<!DOCTYPE svg PUBLIC "-//W3C//DTD SVG 1.1//EN" "http://www.w3.org/Graphics/SVG/1.1/DTD/svg11.dtd">
<svg version="1.1" id="Layer_1" xmlns="http://www.w3.org/2000/svg" xmlns:xlink="http://www.w3.org/1999/xlink" x="0px" y="0px"
	 width="142px" height="239.418px" viewBox="0 0 142 239.418" enable-background="new 0 0 142 239.418" xml:space="preserve">
<line fill="none" stroke="#BCBDC1" stroke-width="3" stroke-miterlimit="10" x1="14.85" y1="177.353" x2="127.149" y2="177.353"/>
<g>
	<defs>
		<path id="SVGID_1_" d="M92.947,108.573c-3.618,0.936-10.312,23.271-10.312,23.271c-0.092,0.918-10.358,3.414-10.358,3.414
			c-6.633,1.371-7.719-2.633-7.719-2.633l11.65-5.138c6.632-3.231,2.247-7.566,2.247-7.566c-0.538-0.237-25.925,8.72-25.925,8.72
			c-0.21,0.095-0.434,0.227-0.666,0.389c-4.191,2.96-11.066,16.49-11.066,16.49l18.444,11.209l3.826-9.223
			c0.719-1.597,20.356-6.865,20.356-6.865c4.61-1.576,5.032-3.943,5.032-3.943l10.021-27.755c-0.145-1.215-0.899-1.604-1.809-1.604
			C95.051,107.338,92.947,108.573,92.947,108.573"/>
	</defs>
	<clipPath id="SVGID_2_">
		<use xlink:href="#SVGID_1_"  overflow="visible"/>
	</clipPath>
	
		<radialGradient id="SVGID_3_" cx="0" cy="239.418" r="1" gradientTransform="matrix(-21.3946 15.1108 -15.1108 -21.3946 3690.6196 5253.7515)" gradientUnits="userSpaceOnUse">
		<stop  offset="0" style="stop-color:#39B54A"/>
		<stop  offset="0.0026" style="stop-color:#3DB54A"/>
		<stop  offset="0.022" style="stop-color:#51B848"/>
		<stop  offset="0.0862" style="stop-color:#4CB347"/>
		<stop  offset="0.6584" style="stop-color:#1B9B45"/>
		<stop  offset="1" style="stop-color:#009344"/>
	</radialGradient>
	<polygon clip-path="url(#SVGID_2_)" fill="url(#SVGID_3_)" points="79.281,80.158 17.524,123.776 59.995,183.909 121.752,140.291 	
		"/>
</g>
<g>
	<defs>
		<path id="SVGID_4_" d="M70.646,53.456c25.734,0.203,46.543,22.258,46.543,49.44c0,27.31-20.998,49.45-46.896,49.45
			c-25.908,0-46.9-22.14-46.9-49.45c0-20.385,11.695-37.877,28.396-45.446c-18.333,7.969-31.239,26.985-31.239,49.192
			c0,29.382,22.589,53.196,50.451,53.196c27.861,0,50.447-23.813,50.447-53.196c0-29.379-22.586-53.195-50.447-53.195
			C70.88,53.447,70.765,53.456,70.646,53.456"/>
	</defs>
	<clipPath id="SVGID_5_">
		<use xlink:href="#SVGID_4_"  overflow="visible"/>
	</clipPath>
	
		<radialGradient id="SVGID_6_" cx="0" cy="239.418" r="0.9996" gradientTransform="matrix(51.8406 0 0 -51.8406 71 12518.2021)" gradientUnits="userSpaceOnUse">
		<stop  offset="0" style="stop-color:#1C75BC"/>
		<stop  offset="0.2074" style="stop-color:#2174BB"/>
		<stop  offset="0.3817" style="stop-color:#2E6FB7"/>
		<stop  offset="0.5442" style="stop-color:#3C67B1"/>
		<stop  offset="0.6994" style="stop-color:#4B5BA9"/>
		<stop  offset="0.8495" style="stop-color:#59499E"/>
		<stop  offset="0.994" style="stop-color:#652E91"/>
		<stop  offset="1" style="stop-color:#662D91"/>
	</radialGradient>
	<rect x="20.551" y="53.447" clip-path="url(#SVGID_5_)" fill="url(#SVGID_6_)" width="100.898" height="106.391"/>
</g>
<g>
	<defs>
		<path id="SVGID_7_" d="M70.646,53.456c25.734,0.203,46.543,22.258,46.543,49.44c0,27.31-20.998,49.45-46.896,49.45
			c-25.908,0-46.9-22.14-46.9-49.45c0-20.385,11.695-37.877,28.396-45.446c-18.333,7.969-31.239,26.985-31.239,49.192
			c0,29.382,22.589,53.196,50.451,53.196c27.861,0,50.447-23.813,50.447-53.196c0-29.379-22.586-53.195-50.447-53.195
			C70.88,53.447,70.765,53.456,70.646,53.456"/>
	</defs>
	<clipPath id="SVGID_8_">
		<use xlink:href="#SVGID_7_"  overflow="visible"/>
	</clipPath>
	
		<linearGradient id="SVGID_9_" gradientUnits="userSpaceOnUse" x1="4.882813e-004" y1="239.4189" x2="1.0005" y2="239.4189" gradientTransform="matrix(100.8974 0 0 -100.8974 20.5625 24263.3184)">
		<stop  offset="0" style="stop-color:#1C75BC"/>
		<stop  offset="0.2074" style="stop-color:#2174BB"/>
		<stop  offset="0.3817" style="stop-color:#2E6FB7"/>
		<stop  offset="0.5442" style="stop-color:#3C67B1"/>
		<stop  offset="0.6994" style="stop-color:#4B5BA9"/>
		<stop  offset="0.8495" style="stop-color:#59499E"/>
		<stop  offset="0.994" style="stop-color:#652E91"/>
		<stop  offset="1" style="stop-color:#662D91"/>
	</linearGradient>
	<rect x="20.551" y="53.447" clip-path="url(#SVGID_8_)" fill="url(#SVGID_9_)" width="100.898" height="106.391"/>
</g>
<g>
	<defs>
		<rect id="SVGID_10_" width="142" height="239.418"/>
	</defs>
	<clipPath id="SVGID_11_">
		<use xlink:href="#SVGID_10_"  overflow="visible"/>
	</clipPath>
	<polygon clip-path="url(#SVGID_11_)" fill="#FFFFFF" points="34.041,67.853 34.041,73.804 77.825,56.868 79.508,51.985 
		49.296,46.95 	"/>
	<path clip-path="url(#SVGID_11_)" fill="#662D91" d="M72.716,78.91c0,0,6.988-1.5,1.246-7.239c0,0-16.471-17.222-18.967-25.459
		c0,0-6.992-15.728-5.242-29.705c0,0-1.75-5.24-8.486,10.733c0,0-6.494-5.737-5.989,9.484l0.497,4.994c0,0-7.241,1.998-4.747,15.473
		l3.247,17.225c0,0-3.495,1.75,2.746,5.744c0,0,6.74,3.744,6.99,4.74c0,0,9.984,8.237,19.717-0.498c0,0-12.229,6.238-18.221-0.498
		c0,0-3.488-5.494-6.99-4.496l-1.998-3.242c0,0-5.491-21.717-3.493-27.46c0,0,1.747-4.744,4.247-4.492
		c0,0-2.748-22.217,4.746-14.226c0,0,3.24-8.989,4.24-3.995c0,0,2.992,31.198,25.457,47.925
		C71.716,73.917,75.462,75.416,72.716,78.91"/>
	<path clip-path="url(#SVGID_11_)" fill="#662D91" d="M68.47,39.224c0,0,0.502-7.986,4.498-3.994c0,0,8.232-12.481,8.982-5.742
		c0,0,12.729-6.739,7.739,0.25c0,0-12.729,13.48-8.737,34.693c0,0,0.998,7.24-3.246,5.744c0,0,1.498-1.998,1.248-4.244
		c0,0-4.992-22.713,7.239-34.943c0,0,0.252-3.248-4.743,0.25c0,0,0-4.993-4.49,0l-3.5,5.986
		C73.46,37.224,70.968,32.233,68.47,39.224"/>
	<path clip-path="url(#SVGID_11_)" fill="#662D91" d="M76.209,81.906c0,0,3.495-1.998,4.491-7.988c0,0,9.988-15.225,18.474-3.495
		l6.487,8.487c0,0-6.235-3.746-8.235,0.25c0,0-8.737,32.199-32.448,23.961c0,0,17.223,1,27.956-19.469c0,0,3.992-10.732,8.486-7.486
		c0,0-6.49-15.227-16.726-3.498C84.694,72.667,80.452,82.403,76.209,81.906"/>
	<path clip-path="url(#SVGID_11_)" fill="#662D91" d="M61.482,92.638c0,0-12.73,14.227-21.965,18.473c0,0-20.218,3.738-8.236,6.236
		l6.242,0.25c0,0-2.996,6.991,8.231,7.987c0,0,0,3.996,2.003,2.248c0,0,9.735-8.234,15.471-21.219c0,0-13.226,19.469-15.974,19.719
		l-0.25-2.744c0,0-7.487-0.248-7.487-7.239c0,0-8.984,0.748-6.488-1.5C33.029,114.849,58.986,106.613,61.482,92.638"/>
</g>
<g>
	<defs>
		<path id="SVGID_12_" d="M59.584,200.521h1.35c1.481,0,2.495,0.166,3.043,0.498c0.751,0.446,1.127,1.153,1.127,2.126
			c0,0.561-0.134,1.037-0.401,1.433c-0.268,0.394-0.637,0.677-1.103,0.849c-0.467,0.171-1.298,0.256-2.495,0.256h-1.521V200.521z
			 M54.799,195.857v25.139h4.785V210.35c2.438,0,4.119-0.132,5.041-0.394c1.573-0.455,2.817-1.265,3.734-2.427
			c0.918-1.162,1.377-2.62,1.377-4.375c0-1.583-0.351-2.943-1.052-4.076c-0.7-1.133-1.657-1.953-2.871-2.461
			c-1.213-0.507-3.193-0.76-5.939-0.76H54.799z M32.846,197.002c-2.113,1.185-3.736,2.752-4.869,4.699
			c-1.135,1.949-1.702,4.177-1.702,6.682c0,3.875,1.245,7.05,3.735,9.528c2.489,2.478,5.688,3.718,9.596,3.718
			c2.119,0,4.004-0.352,5.657-1.053c1.651-0.701,3.406-1.957,5.263-3.771l-3.244-3.385c-1.378,1.369-2.641,2.313-3.79,2.832
			c-1.151,0.518-2.42,0.778-3.808,0.778c-1.627,0-3.108-0.371-4.44-1.112c-1.331-0.742-2.362-1.762-3.091-3.062
			c-0.728-1.3-1.092-2.789-1.092-4.466c0-2.405,0.822-4.43,2.468-6.072c1.644-1.643,3.668-2.465,6.069-2.465
			c2.846,0,5.407,1.204,7.684,3.611l3.347-3.19c-1.39-1.615-3.045-2.861-4.965-3.738c-1.919-0.875-3.917-1.313-5.989-1.313
			C37.236,195.224,34.96,195.818,32.846,197.002 M75.42,197.096c-1.328,1.248-1.994,2.743-1.994,4.486
			c0,1.208,0.4,2.417,1.199,3.632c0.799,1.213,2.568,2.937,5.307,5.168c1.438,1.175,2.369,2.047,2.791,2.616
			c0.422,0.57,0.634,1.14,0.634,1.709c0,0.627-0.28,1.18-0.84,1.658c-0.559,0.478-1.25,0.717-2.069,0.717
			c-1.575,0-2.969-1.111-4.178-3.332l-4.022,2.426c0.947,1.881,2.085,3.259,3.413,4.136c1.33,0.878,2.889,1.317,4.679,1.317
			c2.294,0,4.152-0.674,5.578-2.018c1.426-1.345,2.139-3.047,2.139-5.11c0-1.059-0.203-2.035-0.607-2.93
			c-0.405-0.896-1.093-1.831-2.063-2.813c-0.389-0.397-1.496-1.36-3.321-2.889c-1.951-1.65-3.121-2.728-3.51-3.229
			c-0.286-0.376-0.429-0.773-0.429-1.195c0-0.421,0.2-0.801,0.6-1.137s0.912-0.504,1.54-0.504c1.29,0,2.557,0.865,3.802,2.598
			l3.544-3.127c-1.323-1.539-2.553-2.598-3.688-3.18c-1.135-0.581-2.33-0.872-3.585-0.872
			C78.389,195.224,76.749,195.848,75.42,197.096 M97.942,197.002c-2.114,1.185-3.737,2.752-4.87,4.699
			c-1.134,1.949-1.701,4.177-1.701,6.682c0,3.875,1.244,7.05,3.734,9.528c2.488,2.478,5.688,3.718,9.597,3.718
			c2.118,0,4.004-0.352,5.656-1.053c1.651-0.701,3.405-1.957,5.263-3.771l-3.243-3.385c-1.378,1.369-2.642,2.313-3.791,2.832
			c-1.15,0.518-2.419,0.778-3.808,0.778c-1.627,0-3.108-0.371-4.44-1.112c-1.331-0.742-2.361-1.762-3.09-3.062
			c-0.728-1.3-1.093-2.789-1.093-4.466c0-2.405,0.822-4.43,2.468-6.072c1.645-1.643,3.668-2.465,6.069-2.465
			c2.846,0,5.407,1.204,7.685,3.611l3.346-3.19c-1.39-1.615-3.045-2.861-4.965-3.738c-1.919-0.875-3.916-1.313-5.989-1.313
			C102.331,195.224,100.055,195.818,97.942,197.002"/>
	</defs>
	<clipPath id="SVGID_13_">
		<use xlink:href="#SVGID_12_"  overflow="visible"/>
	</clipPath>
	
		<linearGradient id="SVGID_14_" gradientUnits="userSpaceOnUse" x1="4.882813e-004" y1="239.418" x2="1.0005" y2="239.418" gradientTransform="matrix(89.4482 0 0 -89.4482 26.25 21623.9336)">
		<stop  offset="0" style="stop-color:#662D91"/>
		<stop  offset="0.7542" style="stop-color:#1C75BC"/>
		<stop  offset="0.9813" style="stop-color:#1C75BC"/>
		<stop  offset="1" style="stop-color:#1C75BC"/>
	</linearGradient>
	<rect x="26.275" y="195.224" clip-path="url(#SVGID_13_)" fill="url(#SVGID_14_)" width="89.449" height="26.405"/>
</g>
</svg>
